# xmcd
#
# Track frame offsets:
#  150
#  13971
#  29895
#  47014
#  59326
#  77525
#  90457
#  100297
#  133012
#  150096
#  161611
#  183672
#  202338
#  215204
#  226667
#  244099
#  266258
#
# Disc length: 3722 seconds
#
# Revision: 1
# Processed by: cddbd v1.5.1PL0 Copyright (c) Steve Scherf et al.
# Submitted via: Collectorz.com_Music_Collector 6.9
#
DISCID=e80e8811
DTITLE=The Mannish Boys - That Represent Man
DYEAR=2004
DGENRE=Blues -  Blues Electric
TTITLE0=Going Crazy Over T.V
TTITLE1=Come On Rock Little Girl
TTITLE2=Partin' Time
TTITLE3=You Been Goofin'
TTITLE4=Easier Said Than Done
TTITLE5=I'm A Lover Not A Fighter
TTITLE6=Temperature
TTITLE7=Lost Your Good Thing Now
TTITLE8=I Feel So Bad
TTITLE9=I Had A Dream Last Night
TTITLE10=It's Too Bad
TTITLE11=Call My Job
TTITLE12=You're Sweet
TTITLE13=Lonesome Bedroom Blues
TTITLE14=The Eagle Is Back
TTITLE15=Blues and Trouble
TTITLE16=Strangest Blues
EXTD=
EXTT0=
EXTT1=
EXTT2=
EXTT3=
EXTT4=
EXTT5=
EXTT6=
EXTT7=
EXTT8=
EXTT9=
EXTT10=
EXTT11=
EXTT12=
EXTT13=
EXTT14=
EXTT15=
EXTT16=
PLAYORDER=
